<?xml version="1.0" standalone="no"?>
<!DOCTYPE svg PUBLIC "-//W3C//DTD SVG 20010904//EN"
 "http://www.w3.org/TR/2001/REC-SVG-20010904/DTD/svg10.dtd">
<svg version="1.0" xmlns="http://www.w3.org/2000/svg"
 width="512.000000pt" height="512.000000pt" viewBox="0 0 512.000000 512.000000"
 preserveAspectRatio="xMidYMid meet">

<g transform="translate(0.000000,512.000000) scale(0.100000,-0.100000)"
fill="#000000" stroke="none">
<path d="M1553 4552 c-540 -312 -982 -569 -983 -572 0 -3 450 -267 1001 -587
l1000 -581 232 134 c1280 737 1731 1001 1729 1009 -3 9 -1960 1152 -1987 1160
-5 2 -452 -251 -992 -563z"/>
<path d="M460 3021 l0 -771 27 -17 c15 -10 466 -273 1002 -585 l976 -567 3
772 c1 424 -1 774 -5 778 -10 9 -1973 1150 -1990 1156 -10 4 -13 -153 -13
-766z"/>
<path d="M3663 3202 l-982 -567 -1 -778 c0 -428 4 -777 8 -775 7 3 597 343
967 557 86 50 151 81 168 81 37 0 82 -27 96 -57 7 -15 11 -104 11 -232 0 -192
-2 -210 -20 -233 -11 -14 -292 -183 -625 -374 l-605 -349 0 -238 0 -238 28 15
c15 8 459 264 987 569 l960 555 3 776 c1 427 0 776 -3 776 -3 0 -251 -142
-552 -316 -300 -174 -561 -318 -578 -321 -37 -6 -89 17 -105 46 -6 12 -10 107
-10 238 0 191 3 221 18 239 9 12 288 178 620 369 l602 347 0 239 c0 131 -1
239 -2 238 -2 0 -445 -255 -985 -567z"/>
<path d="M4028 2692 l-408 -236 0 -59 c0 -32 3 -56 8 -54 4 2 213 122 465 267
l457 264 -45 28 c-25 15 -51 28 -57 27 -7 0 -196 -107 -420 -237z"/>
<path d="M617 1852 l-47 -29 987 -573 c544 -316 995 -578 1004 -583 13 -8 128
54 525 283 280 161 513 296 518 300 12 12 -73 63 -95 57 -11 -3 -220 -121
-464 -262 -390 -225 -450 -257 -478 -252 -18 3 -151 75 -297 159 -146 85 -449
262 -675 393 -225 131 -521 302 -656 381 -135 79 -252 146 -260 149 -8 2 -35
-8 -62 -23z"/>
<path d="M470 1403 l0 -238 990 -575 c545 -316 995 -576 1000 -578 6 -2 10 80
10 231 l0 234 -212 124 c-117 67 -373 216 -568 329 -195 114 -539 314 -765
445 -226 130 -420 244 -432 251 l-23 14 0 -237z"/>
</g>
</svg>
