<?xml version="1.0" standalone="no"?>
<!DOCTYPE svg PUBLIC "-//W3C//DTD SVG 20010904//EN"
 "http://www.w3.org/TR/2001/REC-SVG-20010904/DTD/svg10.dtd">
<svg version="1.0" xmlns="http://www.w3.org/2000/svg"
 width="512.000000pt" height="512.000000pt" viewBox="0 0 512.000000 512.000000"
 preserveAspectRatio="xMidYMid meet">

<g transform="translate(0.000000,512.000000) scale(0.100000,-0.100000)"
fill="#000000" stroke="none">
<path d="M1510 4539 c-553 -319 -1015 -591 -1028 -605 l-22 -25 0 -835 c0
-684 2 -841 14 -867 10 -25 32 -44 90 -77 42 -24 76 -47 76 -51 0 -4 -28 -23
-62 -42 -35 -20 -74 -47 -88 -62 l-25 -27 3 -361 3 -362 27 -25 c49 -45 2047
-1200 2076 -1200 39 0 -78 -66 1291 725 88 51 288 167 445 257 350 202 326
187 339 215 15 33 15 1668 1 1710 -8 23 -32 42 -96 80 l-85 50 78 44 c120 68
115 46 107 464 -6 340 -7 351 -28 371 -17 18 -1930 1135 -2033 1188 -18 9 -42
16 -55 16 -13 0 -475 -262 -1028 -581z m1851 -102 c448 -260 856 -497 906
-527 51 -30 90 -57 85 -62 -4 -4 -392 -229 -863 -501 -471 -272 -870 -502
-887 -512 l-30 -18 -319 184 c-1230 714 -1502 874 -1498 878 9 8 1780 1030
1786 1031 4 0 373 -213 820 -473z m-1796 -1261 l900 -523 8 -659 c4 -362 6
-680 5 -705 l-3 -46 -900 523 c-495 288 -903 525 -908 526 -11 4 -22 1408 -11
1408 5 0 414 -236 909 -524z m2893 288 l-3 -215 -545 -315 c-300 -173 -553
-324 -562 -335 -16 -19 -18 -45 -18 -211 0 -210 6 -236 59 -258 17 -7 41 -10
55 -6 13 3 207 112 432 242 535 309 579 334 587 334 4 0 7 -316 7 -703 l0
-702 -891 -515 c-491 -283 -896 -517 -900 -518 -5 -2 -9 93 -9 211 l0 215 542
313 c298 172 553 323 567 335 l26 22 0 207 0 207 -28 24 c-56 48 -56 47 -600
-266 l-502 -290 -3 707 c-1 390 1 709 5 711 9 2 432 247 1258 725 281 163 513
296 518 296 4 1 6 -96 5 -215z m-138 -564 c22 -11 40 -24 40 -28 -1 -7 -821
-482 -834 -482 -4 0 -6 22 -4 50 l3 50 370 214 c204 118 374 215 378 215 4 1
26 -8 47 -19z m-2615 -1435 c598 -348 849 -489 870 -489 21 0 147 68 420 226
215 124 400 231 413 237 19 10 29 8 62 -10 22 -13 40 -25 40 -28 0 -7 -923
-541 -934 -541 -7 0 -1796 1038 -1809 1050 -12 11 55 51 78 47 11 -2 398 -223
860 -492z m-126 -254 l901 -524 0 -212 0 -213 -907 527 -908 528 -3 212 c-1
124 1 211 7 209 5 -1 414 -239 910 -527z"/>
</g>
</svg>
